<svg width="163" height="86" viewBox="0 0 163 86" fill="none" xmlns="http://www.w3.org/2000/svg">
<path d="M115.036 1.61949C102.108 4.15736 87.3582 16.8526 77.7458 23.4542C82.3863 24.8083 92.1644 27.5167 94.1532 27.5167C96.142 27.5167 113.544 23.1165 121.996 20.9164C131.609 25.9941 151.033 37.4698 151.828 42.7511C152.822 49.3527 164.755 57.9855 160.778 52.3995C156.8 46.8136 162.269 43.2589 160.778 31.0714C159.286 18.8839 150.708 10.5804 144.37 6.69633C131.94 -0.921003 123.35 -0.0128676 115.036 1.61949Z" fill="black" stroke="black"/>
<path d="M47.0504 1.61949C59.9776 4.15736 74.7277 16.8526 84.3401 23.4542C79.6997 24.8083 69.9215 27.5167 67.9327 27.5167C65.9439 27.5167 48.5421 23.1165 40.0897 20.9164C30.4773 25.9941 11.0534 37.4698 10.2579 42.7511C9.26352 49.3527 -2.66918 57.9855 1.30839 52.3995C5.28596 46.8136 -0.183201 43.2589 1.30839 31.0714C2.79998 18.8839 11.3779 10.5804 17.7159 6.69633C30.1458 -0.921003 38.7357 -0.0128676 47.0504 1.61949Z" fill="black" stroke="black"/>
<g clip-path="url(#paint0_diamond_2306_1188_clip_path)" data-figma-skip-parse="true"><g transform="matrix(-0.153904 -0.0901883 0.0054329 -0.155581 160.857 79.0243)"><rect x="0" y="0" width="488.814" height="394.073" fill="url(#paint0_diamond_2306_1188)" opacity="1" shape-rendering="crispEdges"/><rect x="0" y="0" width="488.814" height="394.073" transform="scale(1 -1)" fill="url(#paint0_diamond_2306_1188)" opacity="1" shape-rendering="crispEdges"/><rect x="0" y="0" width="488.814" height="394.073" transform="scale(-1 1)" fill="url(#paint0_diamond_2306_1188)" opacity="1" shape-rendering="crispEdges"/><rect x="0" y="0" width="488.814" height="394.073" transform="scale(-1)" fill="url(#paint0_diamond_2306_1188)" opacity="1" shape-rendering="crispEdges"/></g></g><path d="M122.592 85.4982C115.572 85.4982 109.422 84.0493 104.142 81.1515C98.8615 78.2536 94.7401 74.2288 91.7778 69.0771C88.8156 63.861 87.3345 57.8721 87.3345 51.1105C87.3345 43.7693 89.0088 37.4584 92.3574 32.1779C95.706 26.8974 100.085 22.8404 105.494 20.0069C110.968 17.1091 116.892 15.6602 123.268 15.6602C133.249 15.6602 141.331 18.8478 147.513 25.223C153.695 31.5983 156.786 39.8411 156.786 49.9513C156.786 56.6486 155.273 62.7018 152.246 68.1112C149.22 73.4561 145.098 77.7062 139.882 80.8617C134.73 83.9527 128.967 85.4982 122.592 85.4982ZM124.137 76.9013C128.58 76.9013 132.09 74.8406 134.666 70.7192C137.242 66.5334 138.53 60.9631 138.53 54.0083C138.53 45.0572 136.92 37.8126 133.7 32.2745C130.545 26.7364 126.327 23.9673 121.046 23.9673C116.474 23.9673 112.803 26.0924 110.034 30.3426C107.265 34.5927 105.881 40.324 105.881 47.5365C105.881 56.0368 107.587 63.056 111 68.5941C114.478 74.1322 118.857 76.9013 124.137 76.9013Z" data-figma-gradient-fill="{&#34;type&#34;:&#34;GRADIENT_DIAMOND&#34;,&#34;stops&#34;:[{&#34;color&#34;:{&#34;r&#34;:0.12036118656396866,&#34;g&#34;:0.69175630807876587,&#34;b&#34;:0.66318660974502563,&#34;a&#34;:1.0},&#34;position&#34;:0.16346153616905212},{&#34;color&#34;:{&#34;r&#34;:0.49634027481079102,&#34;g&#34;:0.45055299997329712,&#34;b&#34;:1.0,&#34;a&#34;:1.0},&#34;position&#34;:0.81250}],&#34;stopsVar&#34;:[{&#34;color&#34;:{&#34;r&#34;:0.12036118656396866,&#34;g&#34;:0.69175630807876587,&#34;b&#34;:0.66318660974502563,&#34;a&#34;:1.0},&#34;position&#34;:0.16346153616905212},{&#34;color&#34;:{&#34;r&#34;:0.49634027481079102,&#34;g&#34;:0.45055299997329712,&#34;b&#34;:1.0,&#34;a&#34;:1.0},&#34;position&#34;:0.81250}],&#34;transform&#34;:{&#34;m00&#34;:-307.80825805664062,&#34;m01&#34;:10.865790367126465,&#34;m02&#34;:309.32806396484375,&#34;m10&#34;:-180.37651062011719,&#34;m11&#34;:-311.16116333007812,&#34;m12&#34;:324.79315185546875},&#34;opacity&#34;:1.0,&#34;blendMode&#34;:&#34;NORMAL&#34;,&#34;visible&#34;:true}"/>
<g clip-path="url(#paint1_diamond_2306_1188_clip_path)" data-figma-skip-parse="true"><g transform="matrix(-0.153904 -0.0901883 0.0054329 -0.155581 79.9105 79.0243)"><rect x="0" y="0" width="488.814" height="394.073" fill="url(#paint1_diamond_2306_1188)" opacity="1" shape-rendering="crispEdges"/><rect x="0" y="0" width="488.814" height="394.073" transform="scale(1 -1)" fill="url(#paint1_diamond_2306_1188)" opacity="1" shape-rendering="crispEdges"/><rect x="0" y="0" width="488.814" height="394.073" transform="scale(-1 1)" fill="url(#paint1_diamond_2306_1188)" opacity="1" shape-rendering="crispEdges"/><rect x="0" y="0" width="488.814" height="394.073" transform="scale(-1)" fill="url(#paint1_diamond_2306_1188)" opacity="1" shape-rendering="crispEdges"/></g></g><path d="M41.6453 85.4982C34.6261 85.4982 28.4762 84.0493 23.1957 81.1515C17.9152 78.2536 13.7938 74.2288 10.8315 69.0771C7.8693 63.861 6.38818 57.8721 6.38818 51.1105C6.38818 43.7693 8.06249 37.4584 11.4111 32.1779C14.7597 26.8974 19.1387 22.8404 24.548 20.0069C30.0217 17.1091 35.9462 15.6602 42.3215 15.6602C52.3029 15.6602 60.3847 18.8478 66.5668 25.223C72.7488 31.5983 75.8399 39.8411 75.8399 49.9513C75.8399 56.6486 74.3265 62.7018 71.2999 68.1112C68.2733 73.4561 64.1519 77.7062 58.9358 80.8617C53.784 83.9527 48.0206 85.4982 41.6453 85.4982ZM43.1908 76.9013C47.6342 76.9013 51.1438 74.8406 53.7197 70.7192C56.2955 66.5334 57.5834 60.9631 57.5834 54.0083C57.5834 45.0572 55.9735 37.8126 52.7537 32.2745C49.5983 26.7364 45.3803 23.9673 40.0998 23.9673C35.5276 23.9673 31.857 26.0924 29.088 30.3426C26.3189 34.5927 24.9344 40.324 24.9344 47.5365C24.9344 56.0368 26.6409 63.056 30.0539 68.5941C33.5313 74.1322 37.9103 76.9013 43.1908 76.9013Z" data-figma-gradient-fill="{&#34;type&#34;:&#34;GRADIENT_DIAMOND&#34;,&#34;stops&#34;:[{&#34;color&#34;:{&#34;r&#34;:0.12036118656396866,&#34;g&#34;:0.69175630807876587,&#34;b&#34;:0.66318660974502563,&#34;a&#34;:1.0},&#34;position&#34;:0.16346153616905212},{&#34;color&#34;:{&#34;r&#34;:0.49634027481079102,&#34;g&#34;:0.45055299997329712,&#34;b&#34;:1.0,&#34;a&#34;:1.0},&#34;position&#34;:0.81250}],&#34;stopsVar&#34;:[{&#34;color&#34;:{&#34;r&#34;:0.12036118656396866,&#34;g&#34;:0.69175630807876587,&#34;b&#34;:0.66318660974502563,&#34;a&#34;:1.0},&#34;position&#34;:0.16346153616905212},{&#34;color&#34;:{&#34;r&#34;:0.49634027481079102,&#34;g&#34;:0.45055299997329712,&#34;b&#34;:1.0,&#34;a&#34;:1.0},&#34;position&#34;:0.81250}],&#34;transform&#34;:{&#34;m00&#34;:-307.80825805664062,&#34;m01&#34;:10.865790367126465,&#34;m02&#34;:228.38177490234375,&#34;m10&#34;:-180.37651062011719,&#34;m11&#34;:-311.16116333007812,&#34;m12&#34;:324.79315185546875},&#34;opacity&#34;:1.0,&#34;blendMode&#34;:&#34;NORMAL&#34;,&#34;visible&#34;:true}"/>
<defs>
<clipPath id="paint0_diamond_2306_1188_clip_path"><path d="M122.592 85.4982C115.572 85.4982 109.422 84.0493 104.142 81.1515C98.8615 78.2536 94.7401 74.2288 91.7778 69.0771C88.8156 63.861 87.3345 57.8721 87.3345 51.1105C87.3345 43.7693 89.0088 37.4584 92.3574 32.1779C95.706 26.8974 100.085 22.8404 105.494 20.0069C110.968 17.1091 116.892 15.6602 123.268 15.6602C133.249 15.6602 141.331 18.8478 147.513 25.223C153.695 31.5983 156.786 39.8411 156.786 49.9513C156.786 56.6486 155.273 62.7018 152.246 68.1112C149.22 73.4561 145.098 77.7062 139.882 80.8617C134.73 83.9527 128.967 85.4982 122.592 85.4982ZM124.137 76.9013C128.58 76.9013 132.09 74.8406 134.666 70.7192C137.242 66.5334 138.53 60.9631 138.53 54.0083C138.53 45.0572 136.92 37.8126 133.7 32.2745C130.545 26.7364 126.327 23.9673 121.046 23.9673C116.474 23.9673 112.803 26.0924 110.034 30.3426C107.265 34.5927 105.881 40.324 105.881 47.5365C105.881 56.0368 107.587 63.056 111 68.5941C114.478 74.1322 118.857 76.9013 124.137 76.9013Z"/></clipPath><clipPath id="paint1_diamond_2306_1188_clip_path"><path d="M41.6453 85.4982C34.6261 85.4982 28.4762 84.0493 23.1957 81.1515C17.9152 78.2536 13.7938 74.2288 10.8315 69.0771C7.8693 63.861 6.38818 57.8721 6.38818 51.1105C6.38818 43.7693 8.06249 37.4584 11.4111 32.1779C14.7597 26.8974 19.1387 22.8404 24.548 20.0069C30.0217 17.1091 35.9462 15.6602 42.3215 15.6602C52.3029 15.6602 60.3847 18.8478 66.5668 25.223C72.7488 31.5983 75.8399 39.8411 75.8399 49.9513C75.8399 56.6486 74.3265 62.7018 71.2999 68.1112C68.2733 73.4561 64.1519 77.7062 58.9358 80.8617C53.784 83.9527 48.0206 85.4982 41.6453 85.4982ZM43.1908 76.9013C47.6342 76.9013 51.1438 74.8406 53.7197 70.7192C56.2955 66.5334 57.5834 60.9631 57.5834 54.0083C57.5834 45.0572 55.9735 37.8126 52.7537 32.2745C49.5983 26.7364 45.3803 23.9673 40.0998 23.9673C35.5276 23.9673 31.857 26.0924 29.088 30.3426C26.3189 34.5927 24.9344 40.324 24.9344 47.5365C24.9344 56.0368 26.6409 63.056 30.0539 68.5941C33.5313 74.1322 37.9103 76.9013 43.1908 76.9013Z"/></clipPath><linearGradient id="paint0_diamond_2306_1188" x1="0" y1="0" x2="500" y2="500" gradientUnits="userSpaceOnUse">
<stop offset="0.163462" stop-color="#1FB0A9"/>
<stop offset="0.8125" stop-color="#7F73FF"/>
</linearGradient>
<linearGradient id="paint1_diamond_2306_1188" x1="0" y1="0" x2="500" y2="500" gradientUnits="userSpaceOnUse">
<stop offset="0.163462" stop-color="#1FB0A9"/>
<stop offset="0.8125" stop-color="#7F73FF"/>
</linearGradient>
</defs>
</svg>
