<svg width="689" height="119" viewBox="0 0 689 119" fill="none" xmlns="http://www.w3.org/2000/svg">
<path d="M550.817 29.0712C537.094 31.7652 521.436 45.2417 511.232 52.2495C516.158 53.687 526.538 56.562 528.65 56.562C530.761 56.562 549.233 51.8911 558.206 49.5556C568.41 54.9458 589.029 67.1277 589.874 72.7339C590.929 79.7418 603.596 88.9058 599.374 82.9761C595.151 77.0464 600.957 73.273 599.374 60.3355C597.79 47.398 588.685 38.5835 581.957 34.4604C568.762 26.3744 559.643 27.3384 550.817 29.0712Z" fill="black" stroke="black"/>
<path d="M478.648 29.0712C492.371 31.7652 508.028 45.2417 518.232 52.2495C513.306 53.687 502.926 56.562 500.815 56.562C498.704 56.562 480.231 51.8911 471.259 49.5556C461.055 54.9458 440.436 67.1277 439.591 72.7339C438.536 79.7418 425.869 88.9058 430.091 82.9761C434.313 77.0464 428.508 73.273 430.091 60.3355C431.674 47.398 440.78 38.5835 447.508 34.4604C460.703 26.3744 469.822 27.3384 478.648 29.0712Z" fill="black" stroke="black"/>
<g clip-path="url(#paint0_diamond_2302_1144_clip_path)" data-figma-skip-parse="true"><g transform="matrix(-1.5265 -0.1495 0.0538862 -0.257897 729.232 107.383)"><rect x="0" y="0" width="482.224" height="384.083" fill="url(#paint0_diamond_2302_1144)" opacity="1" shape-rendering="crispEdges"/><rect x="0" y="0" width="482.224" height="384.083" transform="scale(1 -1)" fill="url(#paint0_diamond_2302_1144)" opacity="1" shape-rendering="crispEdges"/><rect x="0" y="0" width="482.224" height="384.083" transform="scale(-1 1)" fill="url(#paint0_diamond_2302_1144)" opacity="1" shape-rendering="crispEdges"/><rect x="0" y="0" width="482.224" height="384.083" transform="scale(-1)" fill="url(#paint0_diamond_2302_1144)" opacity="1" shape-rendering="crispEdges"/></g></g><path d="M370.884 5.01367C370.61 9.59375 370.371 14.1396 370.166 18.6514C370.029 23.1631 369.893 28.3584 369.756 34.2373C369.688 40.1162 369.551 47.3965 369.346 56.0781L369.858 56.2832C372.319 52.9336 375.566 50.0625 379.6 47.6699C383.701 45.209 388.042 43.9785 392.622 43.9785C398.022 43.9785 403.047 45.3115 407.695 47.9775C412.412 50.6436 416.206 54.5059 419.077 59.5645C421.948 64.623 423.384 70.6729 423.384 77.7139C423.384 85.3701 421.538 92.2744 417.847 98.4268C414.155 104.511 409.062 109.33 402.568 112.885C396.143 116.371 388.76 118.114 380.42 118.114C370.439 118.114 360.869 116.2 351.709 112.372C351.982 106.767 352.119 101.469 352.119 96.4785C352.188 91.4883 352.222 86.2588 352.222 80.79V57.3086C352.222 51.3613 352.188 45.6533 352.119 40.1846C352.051 34.7158 351.948 29.999 351.812 26.0342C351.743 22.001 351.641 19.2324 351.504 17.7285L339.404 16.293L339.097 9.83301L366.782 2.34766L370.884 5.01367ZM125.2 43.9766C135.796 43.9766 144.375 47.3604 150.938 54.1279C157.5 60.8955 160.781 69.6455 160.781 80.3779C160.781 87.4873 159.175 93.9131 155.962 99.6553C152.749 105.329 148.374 109.841 142.837 113.19C137.368 116.472 131.25 118.112 124.482 118.112C117.031 118.112 110.503 116.574 104.897 113.498C99.292 110.422 94.917 106.149 91.7725 100.681C88.6279 95.1436 87.0557 88.7861 87.0557 81.6084C87.0557 73.8154 88.833 67.1162 92.3877 61.5107C95.9424 55.9053 100.591 51.5986 106.333 48.5908C112.144 45.5146 118.433 43.9766 125.2 43.9766ZM211.128 43.9766C221.724 43.9766 230.303 47.3604 236.865 54.1279C243.428 60.8955 246.709 69.6455 246.709 80.3779C246.709 87.4873 245.103 93.9131 241.89 99.6553C238.677 105.329 234.302 109.841 228.765 113.19C223.296 116.472 217.178 118.112 210.41 118.112C202.959 118.112 196.431 116.574 190.825 113.498C185.22 110.422 180.845 106.149 177.7 100.681C174.556 95.1436 172.983 88.7861 172.983 81.6084C172.983 73.8154 174.761 67.1162 178.315 61.5107C181.87 55.9053 186.519 51.5986 192.261 48.5908C198.071 45.5146 204.36 43.9766 211.128 43.9766ZM473.628 43.9766C484.224 43.9766 492.803 47.3604 499.365 54.1279C505.928 60.8955 509.209 69.6455 509.209 80.3779C509.209 87.4873 507.603 93.9131 504.39 99.6553C501.177 105.329 496.802 109.841 491.265 113.19C485.796 116.472 479.678 118.112 472.91 118.112C465.459 118.112 458.931 116.574 453.325 113.498C447.72 110.422 443.345 106.149 440.2 100.681C437.056 95.1436 435.483 88.7861 435.483 81.6084C435.483 73.8154 437.261 67.1162 440.815 61.5107C444.37 55.9053 449.019 51.5986 454.761 48.5908C460.571 45.5146 466.86 43.9766 473.628 43.9766ZM559.556 43.9766C570.151 43.9766 578.73 47.3604 585.293 54.1279C591.855 60.8955 595.137 69.6455 595.137 80.3779C595.137 87.4873 593.53 93.9131 590.317 99.6553C587.104 105.329 582.729 109.841 577.192 113.19C571.724 116.472 565.605 118.112 558.838 118.112C551.387 118.112 544.858 116.574 539.253 113.498C533.647 110.422 529.272 106.149 526.128 100.681C522.983 95.1436 521.411 88.7861 521.411 81.6084C521.411 73.8154 523.188 67.1162 526.743 61.5107C530.298 55.9053 534.946 51.5986 540.688 48.5908C546.499 45.5146 552.788 43.9766 559.556 43.9766ZM44.6045 28.082L30.9668 30.3379C30.2832 32.0469 29.9414 40.3525 29.9414 55.2549V82.1201C29.9414 88.2725 29.9756 93.3994 30.0439 97.501C30.1123 101.534 30.2832 104.166 30.5566 105.396C33.7012 105.943 37.666 106.217 42.4512 106.217H51.2695C53.7305 106.217 55.8496 106.114 57.627 105.909C59.4727 105.704 61.1133 105.499 62.5488 105.294L71.5723 88.0674L80.4932 90.1182L73.0078 117.804C69.5898 117.462 65.7275 117.223 61.4209 117.086C57.1826 116.949 53.7988 116.881 51.2695 116.881H0.307617L0 109.498L10.3564 107.14C10.4932 106.319 10.6299 103.619 10.7666 99.0391C10.9717 94.3906 11.0742 88.751 11.0742 82.1201V55.2549C11.0742 48.4873 11.0059 42.8135 10.8691 38.2334C10.7324 33.6533 10.5615 30.9873 10.3564 30.2354L0 27.7744L0.307617 20.2891H44.1943L44.6045 28.082ZM286.084 5.01367C285.811 9.52539 285.571 13.9688 285.366 18.3438C285.229 22.7188 285.127 27.6406 285.059 33.1094C284.99 38.5781 284.956 45.209 284.956 53.002L284.89 77.9434L288.237 76.9961L311.924 54.1299L301.157 52.2842L301.465 45.3115H336.431L336.943 52.2842L326.074 54.2324L302.469 74.5752L324.434 98.9395C326.143 100.922 327.852 102.802 329.561 104.579C331.27 106.356 332.637 107.689 333.662 108.578L340.43 109.911L339.814 116.884H316.025C314.18 114.491 312.607 112.543 311.309 111.039C310.078 109.467 308.813 107.963 307.515 106.527L286.904 83.5586H284.875L284.854 91.5566C284.854 95.5215 284.922 98.9395 285.059 101.811C285.264 104.682 285.4 106.527 285.469 107.348L295.723 110.116L295.312 116.884H257.578L257.065 110.116L266.499 107.348C266.704 105.57 266.909 102.05 267.114 96.7861C267.319 91.4541 267.422 85.7461 267.422 79.6621V57.3086C267.422 51.9766 267.388 46.6787 267.319 41.415C267.251 36.083 267.148 31.332 267.012 27.1621C266.943 22.9238 266.875 19.8477 266.807 17.9336L254.604 16.293L254.297 9.83301L281.982 2.34766L286.084 5.01367ZM634.512 5.01367C634.238 9.52539 633.999 13.9688 633.794 18.3438C633.657 22.7188 633.555 27.6406 633.486 33.1094C633.418 38.5781 633.384 45.209 633.384 53.002L633.317 77.9434L636.665 76.9961L660.352 54.1299L649.585 52.2842L649.893 45.3115H684.858L685.371 52.2842L674.502 54.2324L650.896 74.5752L672.861 98.9395C674.57 100.922 676.279 102.802 677.988 104.579C679.697 106.356 681.064 107.689 682.09 108.578L688.857 109.911L688.242 116.884H664.453C662.607 114.491 661.035 112.543 659.736 111.039C658.506 109.467 657.241 107.963 655.942 106.527L635.332 83.5586H633.303L633.281 91.5566C633.281 95.5215 633.35 98.9395 633.486 101.811C633.691 104.682 633.828 106.527 633.896 107.348L644.15 110.116L643.74 116.884H606.006L605.493 110.116L614.927 107.348C615.132 105.57 615.337 102.05 615.542 96.7861C615.747 91.4541 615.85 85.7461 615.85 79.6621V57.3086C615.85 51.9766 615.815 46.6787 615.747 41.415C615.679 36.083 615.576 31.332 615.439 27.1621C615.371 22.9238 615.303 19.8477 615.234 17.9336L603.032 16.293L602.725 9.83301L630.41 2.34766L634.512 5.01367ZM122.842 52.7949C117.988 52.7949 114.092 55.0508 111.152 59.5625C108.213 64.0742 106.743 70.1582 106.743 77.8145C106.743 86.8379 108.555 94.2891 112.178 100.168C115.869 106.047 120.518 108.986 126.123 108.986C130.84 108.986 134.565 106.799 137.3 102.424C140.034 97.9805 141.401 92.0674 141.401 84.6846C141.401 75.1826 139.692 67.4922 136.274 61.6133C132.925 55.7344 128.447 52.7949 122.842 52.7949ZM208.77 52.7949C203.916 52.7949 200.02 55.0508 197.08 59.5625C194.141 64.0742 192.671 70.1582 192.671 77.8145C192.671 86.8379 194.482 94.2891 198.105 100.168C201.797 106.047 206.445 108.986 212.051 108.986C216.768 108.986 220.493 106.799 223.228 102.424C225.962 97.9805 227.329 92.0674 227.329 84.6846C227.329 75.1826 225.62 67.4922 222.202 61.6133C218.853 55.7344 214.375 52.7949 208.77 52.7949ZM471.27 52.7949C466.416 52.7949 462.52 55.0508 459.58 59.5625C456.641 64.0742 455.171 70.1582 455.171 77.8145C455.171 86.8379 456.982 94.2891 460.605 100.168C464.297 106.047 468.945 108.986 474.551 108.986C479.268 108.986 482.993 106.799 485.728 102.424C488.462 97.9805 489.829 92.0674 489.829 84.6846C489.829 75.1826 488.12 67.4922 484.702 61.6133C481.353 55.7344 476.875 52.7949 471.27 52.7949ZM557.197 52.7949C552.344 52.7949 548.447 55.0508 545.508 59.5625C542.568 64.0742 541.099 70.1582 541.099 77.8145C541.099 86.8379 542.91 94.2891 546.533 100.168C550.225 106.047 554.873 108.986 560.479 108.986C565.195 108.986 568.921 106.799 571.655 102.424C574.39 97.9805 575.757 92.0674 575.757 84.6846C575.757 75.1826 574.048 67.4922 570.63 61.6133C567.28 55.7344 562.803 52.7949 557.197 52.7949ZM384.624 57.6162C378.472 57.6162 373.516 59.9746 369.756 64.6914V103.041C371.533 104.408 373.652 105.536 376.113 106.425C378.643 107.245 381.343 107.655 384.214 107.655C389.888 107.655 394.57 105.536 398.262 101.298C402.021 96.9912 403.936 90.4287 404.004 81.6104C404.072 73.2705 402.158 67.1865 398.262 63.3584C394.434 59.5303 389.888 57.6162 384.624 57.6162Z" data-figma-gradient-fill="{&#34;type&#34;:&#34;GRADIENT_DIAMOND&#34;,&#34;stops&#34;:[{&#34;color&#34;:{&#34;r&#34;:0.12036118656396866,&#34;g&#34;:0.69175630807876587,&#34;b&#34;:0.66318660974502563,&#34;a&#34;:1.0},&#34;position&#34;:0.16346153616905212},{&#34;color&#34;:{&#34;r&#34;:0.49634027481079102,&#34;g&#34;:0.45055299997329712,&#34;b&#34;:1.0,&#34;a&#34;:1.0},&#34;position&#34;:0.81250}],&#34;stopsVar&#34;:[{&#34;color&#34;:{&#34;r&#34;:0.12036118656396866,&#34;g&#34;:0.69175630807876587,&#34;b&#34;:0.66318660974502563,&#34;a&#34;:1.0},&#34;position&#34;:0.16346153616905212},{&#34;color&#34;:{&#34;r&#34;:0.49634027481079102,&#34;g&#34;:0.45055299997329712,&#34;b&#34;:1.0,&#34;a&#34;:1.0},&#34;position&#34;:0.81250}],&#34;transform&#34;:{&#34;m00&#34;:-3053.0,&#34;m01&#34;:107.77247619628906,&#34;m02&#34;:2201.846191406250,&#34;m10&#34;:-298.99990844726562,&#34;m11&#34;:-515.79425048828125,&#34;m12&#34;:514.77990722656250},&#34;opacity&#34;:1.0,&#34;blendMode&#34;:&#34;NORMAL&#34;,&#34;visible&#34;:true}"/>
<path d="M150.533 39.2109C149.221 39.0469 148.1 38.9512 147.17 38.9238C146.268 38.8965 145.406 38.8828 144.586 38.8828H121.986L121.822 36.4629L125.842 35.5605C126.033 34.959 126.129 31.7324 126.129 25.8809V13.3301C126.129 7.3418 126.033 4.08789 125.842 3.56836L121.822 2.70703L121.986 0.246094H143.232C144.107 0.246094 145.051 0.232422 146.062 0.205078C147.074 0.177734 148.236 0.109375 149.549 0L150.82 8.61328L147.908 9.02344L145.734 3.56836C145.023 3.4043 144.176 3.32227 143.191 3.32227H135.521C134.701 3.32227 133.977 3.34961 133.348 3.4043C132.719 3.43164 132.117 3.47266 131.543 3.52734C131.488 3.82812 131.447 4.77148 131.42 6.35742C131.42 7.91602 131.42 9.44727 131.42 10.9512V28.998C131.42 30.2832 131.42 31.582 131.42 32.8945C131.447 34.1797 131.488 35.0137 131.543 35.3965C132.145 35.4785 132.76 35.5332 133.389 35.5605C134.045 35.5879 134.783 35.6016 135.604 35.6016H142.248C144.818 35.6016 146.377 35.5195 146.924 35.3555L150.328 29.1211L153.199 29.6543L150.533 39.2109ZM143.314 25.3477L142.535 20.918C142.016 20.7266 141.004 20.6309 139.5 20.6309H134.414C133.84 20.6309 133.211 20.6582 132.527 20.7129C131.871 20.7402 131.174 20.7676 130.436 20.7949V17.3086C131.174 17.3359 131.871 17.3633 132.527 17.3906C133.211 17.3906 133.84 17.3906 134.414 17.3906H139.5C140.211 17.3906 140.826 17.3906 141.346 17.3906C141.893 17.3633 142.289 17.3086 142.535 17.2266L143.314 12.6328H146.062V25.3477H143.314Z" fill="#4399CA"/>
<path d="M101.684 38.8828L101.561 36.4629L105.539 35.5605C105.648 35.3145 105.73 34.4531 105.785 32.9766C105.867 31.4727 105.908 29.1074 105.908 25.8809V13.3301C105.908 10.0488 105.867 7.66992 105.785 6.19336C105.73 4.68945 105.648 3.81445 105.539 3.56836L101.561 2.70703L101.684 0.246094H115.506L115.67 2.70703L111.65 3.56836C111.514 3.81445 111.418 4.67578 111.363 6.15234C111.309 7.62891 111.281 10.0215 111.281 13.3301V25.8809C111.281 29.1348 111.309 31.5 111.363 32.9766C111.418 34.4531 111.514 35.3145 111.65 35.5605L115.67 36.4629L115.506 38.8828H101.684ZM77.9355 38.8828L77.7715 36.4629L81.791 35.5605C81.9824 34.959 82.0781 31.7324 82.0781 25.8809V13.3301C82.0781 7.36914 81.9824 4.11523 81.791 3.56836L77.7715 2.70703L77.9355 0.246094H91.6758L91.8398 2.70703L87.7793 3.56836C87.6426 3.81445 87.5469 4.68945 87.4922 6.19336C87.4375 7.66992 87.4102 10.0488 87.4102 13.3301V25.8809C87.4102 29.1074 87.4375 31.4727 87.4922 32.9766C87.5469 34.4531 87.6426 35.3145 87.7793 35.5605L91.8398 36.4629L91.6758 38.8828H77.9355ZM86.6309 20.918V17.1445C87.4785 17.2266 88.7637 17.2812 90.4863 17.3086C92.209 17.3359 94.3008 17.3496 96.7617 17.3496C99.168 17.3496 101.205 17.3359 102.873 17.3086C104.568 17.2812 105.826 17.2266 106.646 17.1445V20.918C105.635 20.8359 104.35 20.7676 102.791 20.7129C101.26 20.6582 99.25 20.6309 96.7617 20.6309C91.8398 20.6309 88.4629 20.7266 86.6309 20.918Z" fill="#4399CA"/>
<path d="M72.0293 0L73.4648 10.541L70.6758 10.8691L67.9277 3.48633C67.1348 3.34961 66.3281 3.28125 65.5078 3.28125H63.0879C62.6504 3.28125 62.0488 3.28125 61.2832 3.28125C60.5176 3.28125 59.834 3.30859 59.2324 3.36328C59.2051 3.71875 59.1777 4.53906 59.1504 5.82422C59.1504 7.10938 59.1367 8.59961 59.1094 10.2949C59.1094 11.9902 59.1094 13.6172 59.1094 15.1758V24.2812C59.1094 27.125 59.123 29.5723 59.1504 31.623C59.2051 33.6465 59.2461 34.959 59.2734 35.5605L64.8105 36.3398L64.6465 38.8828H48.1992L48.0352 36.3398L53.5312 35.5605C53.5312 34.959 53.5586 33.6465 53.6133 31.623C53.668 29.5723 53.6953 27.125 53.6953 24.2812V15.1758C53.6953 13.6172 53.6953 11.9902 53.6953 10.2949C53.6953 8.59961 53.6816 7.10938 53.6543 5.82422C53.6543 4.53906 53.6406 3.71875 53.6133 3.36328C53.0391 3.30859 52.3691 3.28125 51.6035 3.28125C50.8379 3.28125 50.2227 3.28125 49.7578 3.28125H47.2148C46.4219 3.28125 45.6562 3.34961 44.918 3.48633L42.1289 10.9922L39.2988 10.582L40.7344 0C42.8398 0.164062 44.8906 0.246094 46.8867 0.246094H65.877C67.8184 0.246094 69.8691 0.164062 72.0293 0Z" fill="#4399CA"/>
<defs>
<clipPath id="paint0_diamond_2302_1144_clip_path"><path d="M370.884 5.01367C370.61 9.59375 370.371 14.1396 370.166 18.6514C370.029 23.1631 369.893 28.3584 369.756 34.2373C369.688 40.1162 369.551 47.3965 369.346 56.0781L369.858 56.2832C372.319 52.9336 375.566 50.0625 379.6 47.6699C383.701 45.209 388.042 43.9785 392.622 43.9785C398.022 43.9785 403.047 45.3115 407.695 47.9775C412.412 50.6436 416.206 54.5059 419.077 59.5645C421.948 64.623 423.384 70.6729 423.384 77.7139C423.384 85.3701 421.538 92.2744 417.847 98.4268C414.155 104.511 409.062 109.33 402.568 112.885C396.143 116.371 388.76 118.114 380.42 118.114C370.439 118.114 360.869 116.2 351.709 112.372C351.982 106.767 352.119 101.469 352.119 96.4785C352.188 91.4883 352.222 86.2588 352.222 80.79V57.3086C352.222 51.3613 352.188 45.6533 352.119 40.1846C352.051 34.7158 351.948 29.999 351.812 26.0342C351.743 22.001 351.641 19.2324 351.504 17.7285L339.404 16.293L339.097 9.83301L366.782 2.34766L370.884 5.01367ZM125.2 43.9766C135.796 43.9766 144.375 47.3604 150.938 54.1279C157.5 60.8955 160.781 69.6455 160.781 80.3779C160.781 87.4873 159.175 93.9131 155.962 99.6553C152.749 105.329 148.374 109.841 142.837 113.19C137.368 116.472 131.25 118.112 124.482 118.112C117.031 118.112 110.503 116.574 104.897 113.498C99.292 110.422 94.917 106.149 91.7725 100.681C88.6279 95.1436 87.0557 88.7861 87.0557 81.6084C87.0557 73.8154 88.833 67.1162 92.3877 61.5107C95.9424 55.9053 100.591 51.5986 106.333 48.5908C112.144 45.5146 118.433 43.9766 125.2 43.9766ZM211.128 43.9766C221.724 43.9766 230.303 47.3604 236.865 54.1279C243.428 60.8955 246.709 69.6455 246.709 80.3779C246.709 87.4873 245.103 93.9131 241.89 99.6553C238.677 105.329 234.302 109.841 228.765 113.19C223.296 116.472 217.178 118.112 210.41 118.112C202.959 118.112 196.431 116.574 190.825 113.498C185.22 110.422 180.845 106.149 177.7 100.681C174.556 95.1436 172.983 88.7861 172.983 81.6084C172.983 73.8154 174.761 67.1162 178.315 61.5107C181.87 55.9053 186.519 51.5986 192.261 48.5908C198.071 45.5146 204.36 43.9766 211.128 43.9766ZM473.628 43.9766C484.224 43.9766 492.803 47.3604 499.365 54.1279C505.928 60.8955 509.209 69.6455 509.209 80.3779C509.209 87.4873 507.603 93.9131 504.39 99.6553C501.177 105.329 496.802 109.841 491.265 113.19C485.796 116.472 479.678 118.112 472.91 118.112C465.459 118.112 458.931 116.574 453.325 113.498C447.72 110.422 443.345 106.149 440.2 100.681C437.056 95.1436 435.483 88.7861 435.483 81.6084C435.483 73.8154 437.261 67.1162 440.815 61.5107C444.37 55.9053 449.019 51.5986 454.761 48.5908C460.571 45.5146 466.86 43.9766 473.628 43.9766ZM559.556 43.9766C570.151 43.9766 578.73 47.3604 585.293 54.1279C591.855 60.8955 595.137 69.6455 595.137 80.3779C595.137 87.4873 593.53 93.9131 590.317 99.6553C587.104 105.329 582.729 109.841 577.192 113.19C571.724 116.472 565.605 118.112 558.838 118.112C551.387 118.112 544.858 116.574 539.253 113.498C533.647 110.422 529.272 106.149 526.128 100.681C522.983 95.1436 521.411 88.7861 521.411 81.6084C521.411 73.8154 523.188 67.1162 526.743 61.5107C530.298 55.9053 534.946 51.5986 540.688 48.5908C546.499 45.5146 552.788 43.9766 559.556 43.9766ZM44.6045 28.082L30.9668 30.3379C30.2832 32.0469 29.9414 40.3525 29.9414 55.2549V82.1201C29.9414 88.2725 29.9756 93.3994 30.0439 97.501C30.1123 101.534 30.2832 104.166 30.5566 105.396C33.7012 105.943 37.666 106.217 42.4512 106.217H51.2695C53.7305 106.217 55.8496 106.114 57.627 105.909C59.4727 105.704 61.1133 105.499 62.5488 105.294L71.5723 88.0674L80.4932 90.1182L73.0078 117.804C69.5898 117.462 65.7275 117.223 61.4209 117.086C57.1826 116.949 53.7988 116.881 51.2695 116.881H0.307617L0 109.498L10.3564 107.14C10.4932 106.319 10.6299 103.619 10.7666 99.0391C10.9717 94.3906 11.0742 88.751 11.0742 82.1201V55.2549C11.0742 48.4873 11.0059 42.8135 10.8691 38.2334C10.7324 33.6533 10.5615 30.9873 10.3564 30.2354L0 27.7744L0.307617 20.2891H44.1943L44.6045 28.082ZM286.084 5.01367C285.811 9.52539 285.571 13.9688 285.366 18.3438C285.229 22.7188 285.127 27.6406 285.059 33.1094C284.99 38.5781 284.956 45.209 284.956 53.002L284.89 77.9434L288.237 76.9961L311.924 54.1299L301.157 52.2842L301.465 45.3115H336.431L336.943 52.2842L326.074 54.2324L302.469 74.5752L324.434 98.9395C326.143 100.922 327.852 102.802 329.561 104.579C331.27 106.356 332.637 107.689 333.662 108.578L340.43 109.911L339.814 116.884H316.025C314.18 114.491 312.607 112.543 311.309 111.039C310.078 109.467 308.813 107.963 307.515 106.527L286.904 83.5586H284.875L284.854 91.5566C284.854 95.5215 284.922 98.9395 285.059 101.811C285.264 104.682 285.4 106.527 285.469 107.348L295.723 110.116L295.312 116.884H257.578L257.065 110.116L266.499 107.348C266.704 105.57 266.909 102.05 267.114 96.7861C267.319 91.4541 267.422 85.7461 267.422 79.6621V57.3086C267.422 51.9766 267.388 46.6787 267.319 41.415C267.251 36.083 267.148 31.332 267.012 27.1621C266.943 22.9238 266.875 19.8477 266.807 17.9336L254.604 16.293L254.297 9.83301L281.982 2.34766L286.084 5.01367ZM634.512 5.01367C634.238 9.52539 633.999 13.9688 633.794 18.3438C633.657 22.7188 633.555 27.6406 633.486 33.1094C633.418 38.5781 633.384 45.209 633.384 53.002L633.317 77.9434L636.665 76.9961L660.352 54.1299L649.585 52.2842L649.893 45.3115H684.858L685.371 52.2842L674.502 54.2324L650.896 74.5752L672.861 98.9395C674.57 100.922 676.279 102.802 677.988 104.579C679.697 106.356 681.064 107.689 682.09 108.578L688.857 109.911L688.242 116.884H664.453C662.607 114.491 661.035 112.543 659.736 111.039C658.506 109.467 657.241 107.963 655.942 106.527L635.332 83.5586H633.303L633.281 91.5566C633.281 95.5215 633.35 98.9395 633.486 101.811C633.691 104.682 633.828 106.527 633.896 107.348L644.15 110.116L643.74 116.884H606.006L605.493 110.116L614.927 107.348C615.132 105.57 615.337 102.05 615.542 96.7861C615.747 91.4541 615.85 85.7461 615.85 79.6621V57.3086C615.85 51.9766 615.815 46.6787 615.747 41.415C615.679 36.083 615.576 31.332 615.439 27.1621C615.371 22.9238 615.303 19.8477 615.234 17.9336L603.032 16.293L602.725 9.83301L630.41 2.34766L634.512 5.01367ZM122.842 52.7949C117.988 52.7949 114.092 55.0508 111.152 59.5625C108.213 64.0742 106.743 70.1582 106.743 77.8145C106.743 86.8379 108.555 94.2891 112.178 100.168C115.869 106.047 120.518 108.986 126.123 108.986C130.84 108.986 134.565 106.799 137.3 102.424C140.034 97.9805 141.401 92.0674 141.401 84.6846C141.401 75.1826 139.692 67.4922 136.274 61.6133C132.925 55.7344 128.447 52.7949 122.842 52.7949ZM208.77 52.7949C203.916 52.7949 200.02 55.0508 197.08 59.5625C194.141 64.0742 192.671 70.1582 192.671 77.8145C192.671 86.8379 194.482 94.2891 198.105 100.168C201.797 106.047 206.445 108.986 212.051 108.986C216.768 108.986 220.493 106.799 223.228 102.424C225.962 97.9805 227.329 92.0674 227.329 84.6846C227.329 75.1826 225.62 67.4922 222.202 61.6133C218.853 55.7344 214.375 52.7949 208.77 52.7949ZM471.27 52.7949C466.416 52.7949 462.52 55.0508 459.58 59.5625C456.641 64.0742 455.171 70.1582 455.171 77.8145C455.171 86.8379 456.982 94.2891 460.605 100.168C464.297 106.047 468.945 108.986 474.551 108.986C479.268 108.986 482.993 106.799 485.728 102.424C488.462 97.9805 489.829 92.0674 489.829 84.6846C489.829 75.1826 488.12 67.4922 484.702 61.6133C481.353 55.7344 476.875 52.7949 471.27 52.7949ZM557.197 52.7949C552.344 52.7949 548.447 55.0508 545.508 59.5625C542.568 64.0742 541.099 70.1582 541.099 77.8145C541.099 86.8379 542.91 94.2891 546.533 100.168C550.225 106.047 554.873 108.986 560.479 108.986C565.195 108.986 568.921 106.799 571.655 102.424C574.39 97.9805 575.757 92.0674 575.757 84.6846C575.757 75.1826 574.048 67.4922 570.63 61.6133C567.28 55.7344 562.803 52.7949 557.197 52.7949ZM384.624 57.6162C378.472 57.6162 373.516 59.9746 369.756 64.6914V103.041C371.533 104.408 373.652 105.536 376.113 106.425C378.643 107.245 381.343 107.655 384.214 107.655C389.888 107.655 394.57 105.536 398.262 101.298C402.021 96.9912 403.936 90.4287 404.004 81.6104C404.072 73.2705 402.158 67.1865 398.262 63.3584C394.434 59.5303 389.888 57.6162 384.624 57.6162Z"/></clipPath><linearGradient id="paint0_diamond_2302_1144" x1="0" y1="0" x2="500" y2="500" gradientUnits="userSpaceOnUse">
<stop offset="0.163462" stop-color="#1FB0A9"/>
<stop offset="0.8125" stop-color="#7F73FF"/>
</linearGradient>
</defs>
</svg>
